<?xml version="1.0" encoding="UTF-8"?>
<svg width="32px" height="32px" viewBox="0 0 32 32" version="1.1" xmlns="http://www.w3.org/2000/svg" xmlns:xlink="http://www.w3.org/1999/xlink">
    <!-- Generator: Sketch 52.6 (67491) - http://www.bohemiancoding.com/sketch -->
    <title>Fill 5</title>
    <desc>Created with Sketch.</desc>
    <g id="Extension-Experience" stroke="none" stroke-width="1" fill="none" fill-rule="evenodd">
        <g id="Welcome-1-Copy-45" transform="translate(-644.000000, -249.000000)" fill="#152935">
            <g id="Fill-5" transform="translate(644.000000, 249.000000)">
                <path d="M15.6251042,24.0943322 L15.6251042,0 L16.3751042,0 L16.3751042,24.0940625 L22.3635417,18.105625 L22.89375,18.6358333 L16,25.530625 L9.10520833,18.6358333 L9.63541667,18.105625 L15.6251042,24.0943322 Z M31.625,31.625 L0.375,31.625 C0.167708333,31.625 0,31.4572917 0,31.25 L0,9.375 C0,9.16770833 0.167708333,9 0.375,9 L8.70833333,9 L8.70833333,9.75 L0.75,9.75 L0.75,30.875 L31.25,30.875 L31.25,9.75 L23.2916667,9.75 L23.2916667,9 L31.625,9 C31.8322917,9 32,9.16770833 32,9.375 L32,31.25 C32,31.4572917 31.8322917,31.625 31.625,31.625 Z" id="Fill-2"></path>
            </g>
        </g>
    </g>
</svg>