<?xml version="1.0" encoding="UTF-8"?>
<svg width="32px" height="32px" viewBox="0 0 32 32" version="1.1" xmlns="http://www.w3.org/2000/svg" xmlns:xlink="http://www.w3.org/1999/xlink">
    <!-- Generator: Sketch 52.6 (67491) - http://www.bohemiancoding.com/sketch -->
    <title>Fill 1</title>
    <desc>Created with Sketch.</desc>
    <g id="Extension-Experience" stroke="none" stroke-width="1" fill="none" fill-rule="evenodd">
        <g id="Welcome-1-Copy-45" transform="translate(-644.000000, -181.000000)" fill="#152935">
            <path d="M673.53125,204.981753 C672.963542,204.981753 672.407292,204.651222 672.080208,204.11841 C672.0125,204.006843 671.890625,203.939068 671.760417,203.939068 L671.458333,203.939068 C671.252083,203.939068 671.083333,204.10694 671.083333,204.314435 L671.083333,208.109808 L664.166667,208.109808 C663.960417,208.109808 663.791667,208.27768 663.791667,208.485174 L663.791667,208.724992 C663.791667,208.862626 663.866667,208.988791 663.986458,209.053438 C664.534375,209.354774 664.875,209.92408 664.875,210.539264 C664.875,211.481851 664.109375,212.249267 663.166667,212.249267 C662.225,212.249267 661.458333,211.481851 661.458333,210.539264 C661.458333,209.95536 661.772917,209.397524 662.280208,209.086804 C662.390625,209.017986 662.458333,208.897035 662.458333,208.766699 L662.458333,208.485174 C662.458333,208.27768 662.290625,208.109808 662.083333,208.109808 L658.291667,208.109808 L658.291667,205.011991 C658.753125,205.466601 659.364583,205.733529 659.992708,205.733529 C661.352083,205.733529 662.458333,204.629326 662.458333,203.27175 C662.458333,201.915217 661.352083,200.811013 659.992708,200.811013 C659.335417,200.811013 658.736458,201.048746 658.291667,201.465819 L658.291667,197.39205 L671.083333,197.39205 L671.083333,202.229065 C671.083333,202.437602 671.252083,202.605474 671.458333,202.605474 L671.708333,202.605474 C671.844792,202.605474 671.970833,202.529358 672.036458,202.409449 C672.328125,201.878723 672.886458,201.562789 673.53125,201.562789 C674.479167,201.562789 675.25,202.329163 675.25,203.27175 C675.25,204.21538 674.479167,204.981753 673.53125,204.981753 Z M649.625,203.939068 C648.269792,203.939068 647.166667,205.043271 647.166667,206.399804 C647.166667,207.05044 647.419792,207.657283 647.863542,208.109808 L644.75,208.109808 L644.75,197.39205 L648.541667,197.39205 C648.748958,197.39205 648.916667,197.224177 648.916667,197.01564 L648.916667,196.70492 C648.916667,196.574585 648.848958,196.45259 648.7375,196.384816 C648.223958,196.068882 647.916667,195.525644 647.916667,194.93027 C647.916667,193.987683 648.683333,193.22131 649.625,193.22131 C650.566667,193.22131 651.333333,193.987683 651.333333,194.93027 C651.333333,195.546497 650.992708,196.116846 650.44375,196.420267 C650.325,196.486999 650.25,196.613164 650.25,196.748713 L650.25,197.01564 C650.25,197.224177 650.41875,197.39205 650.625,197.39205 L657.541667,197.39205 L657.541667,202.229065 C657.541667,202.437602 657.710417,202.605474 657.916667,202.605474 L658.16875,202.605474 C658.305208,202.605474 658.43125,202.530401 658.496875,202.411535 C658.791667,201.878723 659.35,201.562789 659.992708,201.562789 C660.938542,201.562789 661.708333,202.329163 661.708333,203.27175 C661.708333,204.21538 660.938542,204.981753 659.992708,204.981753 C659.419792,204.981753 658.860417,204.651222 658.533333,204.11841 C658.465625,204.006843 658.34375,203.939068 658.213542,203.939068 L657.916667,203.939068 C657.710417,203.939068 657.541667,204.10694 657.541667,204.314435 L657.541667,208.109808 L651.38125,208.109808 C651.825,207.657283 652.083333,207.045226 652.083333,206.399804 C652.083333,205.043271 650.980208,203.939068 649.625,203.939068 Z M644.75,185.922515 L648.541667,185.922515 C648.748958,185.922515 648.916667,185.754643 648.916667,185.546106 L648.916667,185.234343 C648.916667,185.104008 648.848958,184.982014 648.738542,184.914239 C648.23125,184.602476 647.916667,184.045683 647.916667,183.460736 C647.916667,182.518149 648.683333,181.751776 649.625,181.751776 C650.567708,181.751776 651.333333,182.518149 651.333333,183.460736 C651.333333,184.07592 650.992708,184.645226 650.444792,184.946562 C650.325,185.013294 650.25,185.139459 650.25,185.276051 L650.25,185.546106 C650.25,185.754643 650.41875,185.922515 650.625,185.922515 L657.541667,185.922515 L657.541667,190.759531 C657.541667,190.968068 657.710417,191.13594 657.916667,191.13594 L658.166667,191.13594 C658.303125,191.13594 658.429167,191.059824 658.494792,190.939915 C658.786458,190.409189 659.344792,190.093255 659.989583,190.093255 C660.9375,190.093255 661.708333,190.859629 661.708333,191.802216 C661.708333,192.745846 660.9375,193.512219 659.989583,193.512219 C659.421875,193.512219 658.865625,193.181688 658.538542,192.648876 C658.470833,192.537309 658.348958,192.469534 658.21875,192.469534 L657.916667,192.469534 C657.710417,192.469534 657.541667,192.637406 657.541667,192.844901 L657.541667,196.640274 L651.38125,196.640274 C651.825,196.187748 652.083333,195.575692 652.083333,194.93027 C652.083333,193.573737 650.980208,192.469534 649.625,192.469534 C648.269792,192.469534 647.166667,193.573737 647.166667,194.93027 C647.166667,195.580906 647.419792,196.187748 647.863542,196.640274 L644.75,196.640274 L644.75,185.922515 Z M662.083333,185.922515 C662.290625,185.922515 662.458333,185.754643 662.458333,185.546106 L662.458333,185.234343 C662.458333,185.104008 662.390625,184.982014 662.280208,184.914239 C661.772917,184.602476 661.458333,184.045683 661.458333,183.460736 C661.458333,182.518149 662.225,181.751776 663.166667,181.751776 C664.109375,181.751776 664.875,182.518149 664.875,183.460736 C664.875,184.07592 664.534375,184.645226 663.986458,184.946562 C663.866667,185.013294 663.791667,185.139459 663.791667,185.276051 L663.791667,185.546106 C663.791667,185.754643 663.960417,185.922515 664.166667,185.922515 L671.083333,185.922515 L671.083333,189.997328 C670.638542,189.58234 670.033333,189.341479 669.385417,189.341479 C668.023958,189.341479 666.916667,190.445683 666.916667,191.802216 C666.916667,193.159791 668.023958,194.263995 669.385417,194.263995 C670.00625,194.263995 670.617708,193.996025 671.083333,193.540371 L671.083333,196.640274 L658.291667,196.640274 L658.291667,193.537243 C658.752083,193.994982 659.363542,194.263995 659.989583,194.263995 C661.351042,194.263995 662.458333,193.159791 662.458333,191.802216 C662.458333,190.445683 661.351042,189.341479 659.989583,189.341479 C659.341667,189.341479 658.7375,189.58234 658.291667,189.997328 L658.291667,185.922515 L662.083333,185.922515 Z M673.53125,200.811013 C672.883333,200.811013 672.279167,201.051874 671.833333,201.466862 L671.833333,197.01564 L671.833333,192.844901 C671.833333,192.637406 671.665625,192.469534 671.458333,192.469534 L671.166667,192.469534 C671.038542,192.469534 670.91875,192.535223 670.85,192.644705 C670.511458,193.180645 669.95,193.512219 669.385417,193.512219 C668.4375,193.512219 667.666667,192.745846 667.666667,191.802216 C667.666667,190.859629 668.4375,190.093255 669.385417,190.093255 C670.030208,190.093255 670.588542,190.409189 670.879167,190.939915 C670.945833,191.059824 671.071875,191.13594 671.208333,191.13594 L671.458333,191.13594 C671.665625,191.13594 671.833333,190.968068 671.833333,190.759531 L671.833333,185.546106 C671.833333,185.338612 671.665625,185.17074 671.458333,185.17074 L664.920833,185.17074 C665.365625,184.719257 665.625,184.107201 665.625,183.460736 C665.625,182.104203 664.522917,181 663.166667,181 C661.811458,181 660.708333,182.104203 660.708333,183.460736 C660.708333,184.100945 660.967708,184.715086 661.410417,185.17074 L657.916667,185.17074 L651.379167,185.17074 C651.823958,184.719257 652.083333,184.107201 652.083333,183.460736 C652.083333,182.104203 650.98125,181 649.625,181 C648.269792,181 647.166667,182.104203 647.166667,183.460736 C647.166667,184.100945 647.426042,184.715086 647.86875,185.17074 L644.375,185.17074 C644.16875,185.17074 644,185.338612 644,185.546106 L644,197.01564 L644,208.485174 C644,208.693711 644.16875,208.861584 644.375,208.861584 L648.541667,208.861584 C648.748958,208.861584 648.916667,208.693711 648.916667,208.485174 L648.916667,208.174454 C648.916667,208.044119 648.848958,207.922124 648.7375,207.85435 C648.223958,207.538416 647.916667,206.995178 647.916667,206.399804 C647.916667,205.457217 648.683333,204.690844 649.625,204.690844 C650.566667,204.690844 651.333333,205.457217 651.333333,206.399804 C651.333333,207.016031 650.992708,207.58638 650.44375,207.889801 C650.325,207.956533 650.25,208.082698 650.25,208.218247 L650.25,208.485174 C650.25,208.693711 650.41875,208.861584 650.625,208.861584 L657.916667,208.861584 L661.380208,208.861584 C660.95625,209.313066 660.708333,209.914695 660.708333,210.539264 C660.708333,211.896839 661.811458,213 663.166667,213 C664.522917,213 665.625,211.896839 665.625,210.539264 C665.625,209.907397 665.378125,209.308895 664.952083,208.861584 L671.458333,208.861584 C671.665625,208.861584 671.833333,208.693711 671.833333,208.485174 L671.833333,205.006777 C672.294792,205.464516 672.905208,205.733529 673.53125,205.733529 C674.892708,205.733529 676,204.629326 676,203.27175 C676,201.915217 674.892708,200.811013 673.53125,200.811013 Z" id="Fill-1"></path>
        </g>
    </g>
</svg>