<?xml version="1.0" encoding="UTF-8"?>
<svg width="36px" height="29px" viewBox="0 0 36 29" version="1.1" xmlns="http://www.w3.org/2000/svg" xmlns:xlink="http://www.w3.org/1999/xlink">
    <!-- Generator: Sketch 53.2 (72643) - https://sketchapp.com -->
    <title>Group 2</title>
    <desc>Created with Sketch.</desc>
    <g id="Extension-Experience" stroke="none" stroke-width="1" fill="none" fill-rule="evenodd">
        <g id="Welcome-1-Copy-45" transform="translate(-642.000000, -319.000000)" fill="#152935">
            <g id="Group-2" transform="translate(642.000000, 319.000000)">
                <path d="M15.1468944,9.7294221 C14.2871872,9.7294221 13.5872486,10.451052 13.5872486,11.3395896 C13.5872486,12.2271453 14.2871872,12.9487753 15.1468944,12.9487753 L20.8529154,12.9487753 C21.7126226,12.9487753 22.4125612,12.2271453 22.4125612,11.3395896 C22.4125612,10.451052 21.7126226,9.7294221 20.8529154,9.7294221 L15.1468944,9.7294221 Z M20.8529154,13.6566599 L15.1468944,13.6566599 C13.9086878,13.6566599 12.9025261,12.6169237 12.9025261,11.3395896 C12.9025261,10.0612737 13.9086878,9.0215375 15.1468944,9.0215375 L20.8529154,9.0215375 C22.091122,9.0215375 23.0972837,10.0612737 23.0972837,11.3395896 C23.0972837,12.6169237 22.091122,13.6566599 20.8529154,13.6566599 Z M5.97979118,27.6759169 L30.0202088,27.6759169 L30.0202088,6.78399378 L5.97979118,6.78399378 L5.97979118,27.6759169 Z M30.3625701,28.3838015 L5.63647891,28.3838015 C5.44722921,28.3838015 5.29411765,28.2257302 5.29411765,28.0303501 L5.29411765,6.43054238 C5.29411765,6.23418049 5.44722921,6.07610917 5.63647891,6.07610917 L30.3625701,6.07610917 C30.5527708,6.07610917 30.7058824,6.23418049 30.7058824,6.43054238 L30.7058824,28.0303501 C30.7058824,28.2257302 30.5527708,28.3838015 30.3625701,28.3838015 Z" id="Fill-4"></path>
                <polygon id="Path" fill-rule="nonzero" points="30.6733962 6.69230769 29.9647059 6.29508142 35.2103904 0 35.9190807 0.397226268"></polygon>
                <polygon id="Path" fill-rule="nonzero" points="5.95435248 6.29508256 5.24566112 6.69230769 -2.93098879e-14 0.397225134 0.70869136 0"></polygon>
            </g>
        </g>
    </g>
</svg>